<svg width="28" height="28" viewBox="0 0 28 28" fill="none" xmlns="http://www.w3.org/2000/svg">
<path d="M18.6667 2.33334V7.00001" stroke="white" stroke-width="1.5" stroke-linecap="round" stroke-linejoin="round"/>
<path d="M9.33333 2.33334V7.00001" stroke="white" stroke-width="1.5" stroke-linecap="round" stroke-linejoin="round"/>
<path d="M3.5 10.5H24.5" stroke="white" stroke-width="1.5" stroke-linecap="round" stroke-linejoin="round"/>
<path fill-rule="evenodd" clip-rule="evenodd" d="M22.1667 4.66669H5.83333C4.54417 4.66669 3.5 5.71085 3.5 7.00002V22.1667C3.5 23.4559 4.54417 24.5 5.83333 24.5H22.1667C23.4558 24.5 24.5 23.4559 24.5 22.1667V7.00002C24.5 5.71085 23.4558 4.66669 22.1667 4.66669Z" stroke="white" stroke-width="1.5" stroke-linecap="round" stroke-linejoin="round"/>
<path d="M8.18202 14.85C8.02102 14.85 7.89036 14.9806 7.89152 15.1416C7.89152 15.3026 8.02219 15.4333 8.18319 15.4333C8.34419 15.4333 8.47486 15.3026 8.47486 15.1416C8.47486 14.9806 8.34419 14.85 8.18202 14.85" stroke="white" stroke-width="1.5" stroke-linecap="round" stroke-linejoin="round"/>
<path d="M14.0154 14.85C13.8544 14.85 13.7237 14.9806 13.7249 15.1416C13.7249 15.3026 13.8556 15.4333 14.0166 15.4333C14.1776 15.4333 14.3082 15.3026 14.3082 15.1416C14.3082 14.9806 14.1776 14.85 14.0154 14.85" stroke="white" stroke-width="1.5" stroke-linecap="round" stroke-linejoin="round"/>
<path d="M19.8486 14.85C19.6876 14.85 19.557 14.9806 19.5581 15.1416C19.5581 15.3026 19.6888 15.4333 19.8498 15.4333C20.0108 15.4333 20.1415 15.3026 20.1415 15.1416C20.1415 14.9806 20.0108 14.85 19.8486 14.85" stroke="white" stroke-width="1.5" stroke-linecap="round" stroke-linejoin="round"/>
<path d="M8.18202 19.5166C8.02102 19.5166 7.89036 19.6473 7.89152 19.8083C7.89152 19.9693 8.02219 20.0999 8.18319 20.0999C8.34419 20.0999 8.47486 19.9693 8.47486 19.8083C8.47486 19.6473 8.34419 19.5166 8.18202 19.5166" stroke="white" stroke-width="1.5" stroke-linecap="round" stroke-linejoin="round"/>
<path d="M14.0154 19.5166C13.8544 19.5166 13.7237 19.6473 13.7249 19.8083C13.7249 19.9693 13.8556 20.0999 14.0166 20.0999C14.1776 20.0999 14.3082 19.9693 14.3082 19.8083C14.3082 19.6473 14.1776 19.5166 14.0154 19.5166" stroke="white" stroke-width="1.5" stroke-linecap="round" stroke-linejoin="round"/>
</svg>
