<svg width="17" height="16" viewBox="0 0 17 16" fill="none" xmlns="http://www.w3.org/2000/svg">
<path d="M10.2054 9.03845C9.77901 9.75736 8.95086 10.1357 8.12829 9.98734C7.30573 9.83899 6.66192 9.19518 6.51357 8.37262C6.36522 7.55005 6.74355 6.7219 7.46246 6.29553" stroke="#79747F" stroke-width="1.5" stroke-linecap="round" stroke-linejoin="round"/>
<path d="M12.4978 11.3309C11.348 12.2031 9.94332 12.6732 8.50011 12.6688C6.10871 12.7113 3.89914 11.3971 2.79507 9.27536C2.39847 8.47148 2.39847 7.52884 2.79507 6.72496C3.34723 5.62537 4.22743 4.72453 5.31393 4.14703" stroke="#79747F" stroke-width="1.5" stroke-linecap="round" stroke-linejoin="round"/>
<path d="M14.1178 9.42324C14.1445 9.37255 14.1793 9.32709 14.2046 9.27543C14.6012 8.47156 14.6012 7.52892 14.2046 6.72504C13.1006 4.60332 10.891 3.28904 8.49957 3.33163C8.34965 3.33163 8.20392 3.35164 8.05591 3.36139" stroke="#79747F" stroke-width="1.5" stroke-linecap="round" stroke-linejoin="round"/>
<path d="M14.5024 13.3354L3.16431 1.99731" stroke="#79747F" stroke-width="1.5" stroke-linecap="round" stroke-linejoin="round"/>
</svg>
