<svg width="148" height="58" viewBox="0 0 148 58" fill="none" xmlns="http://www.w3.org/2000/svg">
<g clip-path="url(#clip0_4065_135)">
<path d="M29.592 56.5373C45.0667 56.5373 57.6113 44.2079 57.6113 28.9987C57.6113 13.7895 45.0667 1.46008 29.592 1.46008C14.1174 1.46008 1.57275 13.7895 1.57275 28.9987C1.57275 44.2079 14.1174 56.5373 29.592 56.5373Z" fill="#EEEEFF"/>
<path d="M34.8206 35.9457C34.7466 34.6649 34.1967 33.4594 33.2689 32.5501C32.2645 31.5577 30.9296 31.0121 29.5048 31.0121C26.9805 31.0121 24.612 30.0457 22.8384 28.292C21.7334 27.2061 20.9272 25.8733 20.4805 24.4211C12.7858 25.5901 9.42346 27.9543 9.42346 28.9987C9.42346 30.1262 13.3329 32.7892 22.3652 33.8284C23.3987 33.9479 24.1759 34.8078 24.1759 35.8288V36.2471C24.1759 39.1334 26.5655 41.482 29.5022 41.482C30.9269 41.482 32.2618 40.9364 33.261 39.9492C34.276 38.9594 34.8285 37.6474 34.8285 36.2445L34.8232 36.047C34.8259 36.0159 34.8232 35.9821 34.8206 35.9457Z" fill="url(#paint0_linear_4065_135)"/>
<path d="M36.6445 24.169C35.611 24.0495 34.8338 23.1896 34.8338 22.1686V21.7503C34.8338 20.35 34.2787 19.038 33.2743 18.056C32.2672 17.0584 30.9323 16.5154 29.5049 16.5154C28.0801 16.5154 26.7453 17.061 25.7461 18.0482C24.731 19.038 24.1786 20.35 24.1786 21.7529L24.1839 22.0803C24.2711 23.3533 24.8236 24.5483 25.7408 25.4498C26.7453 26.4423 28.0801 26.9879 29.5049 26.9879C32.0293 26.9879 34.3977 27.9543 36.1714 29.7079C37.2789 30.7965 38.0825 32.1293 38.5266 33.5789C46.224 32.4098 49.5836 30.0457 49.5836 29.0013C49.5863 27.8712 45.6768 25.2108 36.6445 24.169Z" fill="url(#paint1_linear_4065_135)"/>
<path d="M29.5048 0C13.2114 0 0 12.9847 0 28.9987C0 45.0127 13.2114 57.9974 29.5048 57.9974C45.7983 57.9974 59.0097 45.0127 59.0097 28.9987C59.0097 12.9847 45.801 0 29.5048 0ZM44.2573 12.4859C45.3886 12.4859 46.3058 13.3874 46.3058 14.4994C46.3058 15.6113 45.3886 16.5128 44.2573 16.5128C43.1259 16.5128 42.2087 15.6113 42.2087 14.4994C42.2087 13.3874 43.1259 12.4859 44.2573 12.4859ZM14.7524 45.5141C13.6211 45.5141 12.7038 44.6126 12.7038 43.5007C12.7038 42.3887 13.6211 41.4872 14.7524 41.4872C15.8838 41.4872 16.801 42.3887 16.801 43.5007C16.801 44.6126 15.8838 45.5141 14.7524 45.5141ZM38.8305 37.6084C38.5397 39.5725 37.6172 41.3807 36.1607 42.8018C34.395 44.5476 32.0292 45.5141 29.5048 45.5141C24.7786 45.5141 20.8506 42.077 20.1818 37.611C10.8429 36.2627 5.32895 33.0931 5.32895 29.0013C5.32895 24.9121 10.8429 21.7425 20.1818 20.3916C20.4726 18.4275 21.3951 16.6193 22.8516 15.1982C24.6173 13.4524 26.9831 12.4859 29.5075 12.4859C32.0319 12.4859 34.4003 13.4524 36.174 15.206C37.6199 16.6193 38.5424 18.4249 38.8331 20.389C48.172 21.7373 53.686 24.9069 53.686 28.9987C53.6834 33.0879 48.1694 36.2575 38.8305 37.6084Z" fill="url(#paint2_linear_4065_135)"/>
<path d="M68.2137 24.9459C67.8437 24.6861 67.5793 24.2445 67.5793 23.7249C67.5793 22.8935 68.2666 22.244 69.1125 22.244C69.5618 22.244 69.8526 22.3739 70.0641 22.5298C71.5972 23.7249 73.2361 24.4004 75.245 24.4004C77.2539 24.4004 78.5227 23.4651 78.5227 22.1141V22.0622C78.5227 20.7632 77.7826 20.0617 74.3436 19.2823C70.4051 18.3471 68.182 17.2039 68.182 13.8499V13.798C68.182 10.6804 70.8254 8.52408 74.5022 8.52408C76.8284 8.52408 78.7051 9.12161 80.3731 10.2128C80.7431 10.4206 81.0868 10.8623 81.0868 11.4858C81.0868 12.3171 80.3995 12.9666 79.5536 12.9666C79.2364 12.9666 78.9721 12.8887 78.7078 12.7328C77.2804 11.8235 75.9058 11.3559 74.452 11.3559C72.5488 11.3559 71.4386 12.3171 71.4386 13.5122V13.5642C71.4386 14.9671 72.2845 15.5906 75.853 16.422C79.7651 17.3572 81.774 18.7342 81.774 21.7504V21.8024C81.774 25.2057 79.0514 27.2322 75.1657 27.2322C72.6545 27.2322 70.2755 26.4528 68.2137 24.9459Z" fill="#353A51"/>
<path d="M84.6764 14.6812C84.6764 13.7979 85.3637 13.0964 86.2624 13.0964C87.1611 13.0964 87.8748 13.7979 87.8748 14.6812V25.5434C87.8748 26.4267 87.1611 27.1022 86.2624 27.1022C85.3901 27.1022 84.6764 26.4267 84.6764 25.5434V14.6812Z" fill="#353A51"/>
<path d="M84.4385 10.0542C84.4385 9.11893 85.2315 8.52139 86.2624 8.52139C87.2933 8.52139 88.0863 9.11893 88.0863 10.0542V10.2101C88.0863 11.1454 87.2933 11.7689 86.2624 11.7689C85.2315 11.7689 84.4385 11.1454 84.4385 10.2101V10.0542Z" fill="#32D2FF"/>
<path d="M91.3032 14.6812C91.3032 13.7979 91.9905 13.0964 92.8892 13.0964C93.788 13.0964 94.5017 13.7979 94.5017 14.6812V16.0841C95.2418 14.3695 96.6163 13.0705 98.0199 13.0705C99.0244 13.0705 99.6059 13.72 99.6059 14.6293C99.6059 15.4606 99.0508 16.0062 98.3371 16.1361C96.0639 16.5258 94.5017 18.2405 94.5017 21.4905V25.5434C94.5017 26.4007 93.788 27.1022 92.8892 27.1022C92.0169 27.1022 91.3032 26.4267 91.3032 25.5434V14.6812Z" fill="#353A51"/>
<path d="M101.483 14.6812C101.483 13.7979 102.17 13.0964 103.069 13.0964C103.967 13.0964 104.681 13.7979 104.681 14.6812V25.5434C104.681 26.4267 103.967 27.1022 103.069 27.1022C102.196 27.1022 101.483 26.4267 101.483 25.5434V14.6812Z" fill="#353A51"/>
<path d="M101.247 10.0542C101.247 9.11893 102.04 8.52139 103.071 8.52139C104.102 8.52139 104.895 9.11893 104.895 10.0542V10.2101C104.895 11.1454 104.102 11.7689 103.071 11.7689C102.04 11.7689 101.247 11.1454 101.247 10.2101V10.0542Z" fill="#32D2FF"/>
<path d="M120.494 25.5434C120.494 26.4007 119.78 27.1022 118.881 27.1022C118.009 27.1022 117.269 26.4267 117.269 25.5434V24.8419C116.37 26.1409 115.075 27.258 112.907 27.258C109.762 27.258 107.938 25.1797 107.938 21.9841V14.6812C107.938 13.7979 108.651 13.0964 109.524 13.0964C110.422 13.0964 111.136 13.7979 111.136 14.6812V21.0489C111.136 23.1792 112.22 24.3743 114.123 24.3743C115.973 24.3743 117.269 23.1273 117.269 20.9969V14.6812C117.269 13.7979 117.982 13.0964 118.881 13.0964C119.753 13.0964 120.494 13.7979 120.494 14.6812V25.5434Z" fill="#353A51"/>
<path d="M123.443 25.5954C123.1 25.4135 122.835 25.0238 122.835 24.5042C122.835 23.8028 123.391 23.2312 124.131 23.2312C124.395 23.2312 124.633 23.3091 124.818 23.4131C126.166 24.2964 127.57 24.738 128.838 24.738C130.213 24.738 131.006 24.1665 131.006 23.2572V23.2052C131.006 22.14 129.526 21.7763 127.884 21.2827C125.822 20.7112 123.523 19.8798 123.523 17.2558V17.2039C123.523 14.6059 125.717 13.0211 128.492 13.0211C129.972 13.0211 131.532 13.4368 132.88 14.1383C133.329 14.3721 133.647 14.7877 133.647 15.3333C133.647 16.0608 133.065 16.6063 132.325 16.6063C132.061 16.6063 131.902 16.5544 131.691 16.4505C130.554 15.8789 129.391 15.5152 128.413 15.5152C127.171 15.5152 126.457 16.0867 126.457 16.8687V16.9207C126.457 17.9339 127.964 18.3496 129.602 18.8692C131.638 19.4927 133.937 20.402 133.937 22.8701V22.922C133.937 25.8058 131.664 27.2373 128.757 27.2373C126.985 27.2321 125.056 26.6865 123.443 25.5954Z" fill="#353A51"/>
<path d="M68.6896 32.5865C68.6896 31.6772 69.4033 30.9758 70.3284 30.9758H81.1159C81.9353 30.9758 82.5961 31.6253 82.5961 32.4306C82.5961 33.236 81.9353 33.8855 81.1159 33.8855H71.9409V38.8503H79.9264C80.7458 38.8503 81.4093 39.4998 81.4093 40.3051C81.4093 41.1105 80.7484 41.76 79.9264 41.76H71.9409V47.712C71.9409 48.5953 71.2272 49.2968 70.3284 49.2968C69.4033 49.2968 68.6896 48.5953 68.6896 47.712V32.5865Z" fill="#353A51"/>
<path d="M96.6587 47.7354C96.6587 48.5927 95.945 49.2942 95.0463 49.2942C94.174 49.2942 93.4339 48.6187 93.4339 47.7354V47.0339C92.5351 48.3329 91.2399 49.45 89.0724 49.45C85.9268 49.45 84.1029 47.3716 84.1029 44.1761V36.8732C84.1029 35.9899 84.8166 35.2884 85.6889 35.2884C86.5876 35.2884 87.3013 35.9899 87.3013 36.8732V43.2409C87.3013 45.3712 88.3851 46.5663 90.2883 46.5663C92.1386 46.5663 93.4339 45.3192 93.4339 43.1889V36.8732C93.4339 35.9899 94.1476 35.2884 95.0463 35.2884C95.9186 35.2884 96.6587 35.9899 96.6587 36.8732V47.7354Z" fill="#353A51"/>
<path d="M100.563 45.3712V38.1488H100.034C99.2676 38.1488 98.6597 37.5512 98.6597 36.7952C98.6597 36.0392 99.2676 35.4443 100.034 35.4443H100.563V33.1061C100.563 32.2488 101.277 31.5473 102.175 31.5473C103.048 31.5473 103.764 32.2488 103.764 33.1061V35.4443H106.275C107.042 35.4443 107.676 36.0418 107.676 36.7952C107.676 37.5486 107.042 38.1488 106.275 38.1488H103.764V44.8776C103.764 46.0986 104.398 46.5922 105.482 46.5922C105.852 46.5922 106.169 46.5143 106.275 46.5143C106.989 46.5143 107.623 47.0858 107.623 47.8133C107.623 48.3848 107.227 48.8525 106.777 49.0343C106.09 49.2682 105.429 49.3981 104.583 49.3981C102.228 49.3981 100.563 48.3848 100.563 45.3712Z" fill="#353A51"/>
<path d="M122.177 47.7354C122.177 48.5927 121.464 49.2942 120.565 49.2942C119.693 49.2942 118.953 48.6187 118.953 47.7354V47.0339C118.054 48.3329 116.759 49.45 114.591 49.45C111.445 49.45 109.622 47.3716 109.622 44.1761V36.8732C109.622 35.9899 110.335 35.2884 111.208 35.2884C112.106 35.2884 112.82 35.9899 112.82 36.8732V43.2409C112.82 45.3712 113.904 46.5663 115.807 46.5663C117.657 46.5663 118.953 45.3192 118.953 43.1889V36.8732C118.953 35.9899 119.666 35.2884 120.565 35.2884C121.437 35.2884 122.177 35.9899 122.177 36.8732V47.7354Z" fill="#353A51"/>
<path d="M125.556 36.8732C125.556 35.9899 126.243 35.2884 127.142 35.2884C128.04 35.2884 128.754 35.9899 128.754 36.8732V38.2761C129.494 36.5614 130.869 35.2625 132.272 35.2625C133.277 35.2625 133.858 35.9119 133.858 36.8212C133.858 37.6526 133.303 38.1982 132.589 38.3281C130.316 38.7178 128.754 40.4324 128.754 43.6825V47.7354C128.754 48.5927 128.04 49.2942 127.142 49.2942C126.269 49.2942 125.556 48.6187 125.556 47.7354V36.8732Z" fill="#353A51"/>
<path d="M141.709 49.476C137.665 49.476 134.546 46.5923 134.546 42.355V42.303C134.546 38.38 137.374 35.1585 141.368 35.1585C145.809 35.1585 148.003 38.7438 148.003 41.9159C148.003 42.7992 147.315 43.4227 146.496 43.4227H137.744C138.088 45.657 139.7 46.904 141.764 46.904C143.113 46.904 144.17 46.4364 145.069 45.709C145.307 45.5271 145.518 45.4232 145.888 45.4232C146.602 45.4232 147.157 45.9688 147.157 46.6962C147.157 47.0859 146.972 47.4236 146.734 47.6574C145.462 48.7746 143.876 49.476 141.709 49.476ZM144.881 41.3417C144.669 39.3153 143.454 37.7305 141.339 37.7305C139.383 37.7305 138.008 39.2114 137.718 41.3417H144.881Z" fill="#353A51"/>
</g>
<defs>
<linearGradient id="paint0_linear_4065_135" x1="0.34389" y1="54.9348" x2="55.9548" y2="-1.64674" gradientUnits="userSpaceOnUse">
<stop offset="0.1" stop-color="#DE1CFF"/>
<stop offset="1" stop-color="#32D2FF"/>
</linearGradient>
<linearGradient id="paint1_linear_4065_135" x1="3.11779" y1="57.6611" x2="58.7287" y2="1.0795" gradientUnits="userSpaceOnUse">
<stop offset="0.1" stop-color="#DE1CFF"/>
<stop offset="1" stop-color="#32D2FF"/>
</linearGradient>
<linearGradient id="paint2_linear_4065_135" x1="1.7308" y1="56.298" x2="57.3418" y2="-0.283628" gradientUnits="userSpaceOnUse">
<stop offset="0.1" stop-color="#DE1CFF"/>
<stop offset="1" stop-color="#32D2FF"/>
</linearGradient>
<clipPath id="clip0_4065_135">
<rect width="148" height="58" fill="white"/>
</clipPath>
</defs>
</svg>
