<svg width="80" height="80" viewBox="0 0 80 80" fill="none" xmlns="http://www.w3.org/2000/svg">
<path d="M40 0C17.9108 0 0 17.9108 0 40C0 62.0892 17.9108 80 40 80C62.0892 80 80 62.0892 80 40C80 17.9108 62.0928 0 40 0ZM60 17.2227C61.5338 17.2227 62.7773 18.4662 62.7773 20C62.7773 21.5338 61.5338 22.7773 60 22.7773C58.4662 22.7773 57.2227 21.5338 57.2227 20C57.2227 18.4662 58.4662 17.2227 60 17.2227ZM20 62.7809C18.4662 62.7809 17.2227 61.5374 17.2227 60.0036C17.2227 58.4698 18.4662 57.2263 20 57.2263C21.5338 57.2263 22.7773 58.4698 22.7773 60.0036C22.7773 61.5374 21.5338 62.7809 20 62.7809ZM52.6429 51.876C52.2487 54.5852 50.998 57.0794 49.0235 59.0396C46.6296 61.4478 43.4223 62.7809 40 62.7809C33.5925 62.7809 28.2673 58.0398 27.3607 51.8796C14.6999 50.0197 7.22451 45.6477 7.22451 40.0036C7.22451 34.363 14.6999 29.991 27.3607 28.1276C27.7549 25.4184 29.0056 22.9242 30.9801 20.964C33.3739 18.5558 36.5813 17.2227 40.0036 17.2227C43.4259 17.2227 46.6368 18.5558 49.0414 20.9747C51.0016 22.9242 52.2523 25.4148 52.6465 28.124C65.3073 29.9839 72.7827 34.3559 72.7827 40C72.7791 45.6406 65.3037 50.0125 52.6429 51.876Z" fill="url(#paint0_linear_1_717)"/>
<defs>
<linearGradient id="paint0_linear_1_717" x1="2.34646" y1="77.6559" x2="79.0662" y2="0.93614" gradientUnits="userSpaceOnUse">
<stop offset="0.1" stop-color="#DE1CFF"/>
<stop offset="1" stop-color="#32D2FF"/>
</linearGradient>
</defs>
</svg>
