<svg width="16" height="16" viewBox="0 0 16 16" fill="none" xmlns="http://www.w3.org/2000/svg">
<g clip-path="url(#clip0_5790_417)">
<path d="M2.026 5.27647H12.6667C13.4033 5.27647 14 5.87314 14 6.6098V12.6665C14 13.3998 13.4 13.9998 12.6667 13.9998H3.33333C2.59667 13.9998 2 13.4031 2 12.6665V5.52714C2 4.97247 2.34333 4.4758 2.86267 4.2798L9.76467 1.6738C10.2007 1.50914 10.6667 1.83114 10.6667 2.29714V5.2758" stroke="#E12828" stroke-linecap="round" stroke-linejoin="round"/>
<path d="M10.666 9.41664C10.528 9.41731 10.4167 9.52931 10.4167 9.66731C10.4167 9.80531 10.5287 9.91731 10.6667 9.91664C10.8047 9.91664 10.9167 9.80464 10.9167 9.66664C10.9167 9.52864 10.8047 9.41664 10.666 9.41664" stroke="#E12828" stroke-linecap="round" stroke-linejoin="round"/>
</g>
<defs>
<clipPath id="clip0_5790_417">
<rect width="16" height="16" fill="white"/>
</clipPath>
</defs>
</svg>
